# xmcd CD database file
#
# Track frame offsets:
#	150
#	20585
#	30597
#	53132
#
# Disc length: 842 seconds
#
# Revision: 0
# Processed by: cddbd v1.5.1PL0 Copyright (c) Steve Scherf et al.
# Submitted via: CDex 1.51
#
DISCID=29034804
DTITLE=大木彩乃 - 愛をください
DYEAR=1999
DGENRE=JPop
TTITLE0=愛をください
TTITLE1=ピリカ
TTITLE2=愛をください(original piano version)
TTITLE3=ピリカ(original piano version)
EXTD=YEAR: 1999
EXTT0=
EXTT1=
EXTT2=
EXTT3=
PLAYORDER=
